<?xml version="1.0" standalone="no"?>
<!DOCTYPE svg PUBLIC "-//W3C//DTD SVG 20010904//EN"
 "http://www.w3.org/TR/2001/REC-SVG-20010904/DTD/svg10.dtd">
<svg version="1.0" xmlns="http://www.w3.org/2000/svg"
 width="594.000000pt" height="594.000000pt" viewBox="0 0 594.000000 594.000000"
 preserveAspectRatio="xMidYMid meet">
<metadata>
Created by potrace 1.14, written by Peter Selinger 2001-2017
</metadata>
<g transform="translate(0.000000,594.000000) scale(0.100000,-0.100000)"
fill="#000000" stroke="none">
<path d="M0 3265 l0 -2395 369 0 c286 0 370 -3 373 -13 2 -6 3 -139 2 -294
l-1 -283 987 0 986 0 -1 283 c0 155 1 288 3 294 3 10 335 13 1613 13 l1609 0
0 2395 0 2395 -2970 0 -2970 0 0 -2395z m5731 2185 c4 -17 3 -4370 -1 -4371
-3 -1 -681 -2 -1508 -3 -995 -1 -1502 2 -1503 9 -3 26 -4 1271 -2 1280 2 6 39
10 91 10 48 -1 92 0 97 2 8 3 11 88 6 186 -1 14 -10 17 -43 17 -54 -1 -229 0
-333 1 -91 1 -93 1 -120 -1 -17 -1 -164 -1 -370 0 -33 0 -80 0 -105 -1 -25 0
-49 -1 -55 0 -5 0 -59 0 -120 1 -60 0 -146 1 -190 1 -92 1 -93 1 -120 -1 -11
-1 -85 -1 -165 -1 -80 0 -152 0 -160 0 -8 0 -80 0 -160 0 -80 1 -170 1 -200 1
-30 0 -91 0 -134 1 -70 1 -80 -1 -85 -17 -5 -16 -6 -121 -2 -175 1 -13 16 -15
92 -14 73 1 92 -1 97 -14 6 -12 8 -1157 3 -1266 -1 -20 -6 -21 -263 -19 -145
1 -265 2 -268 3 -8 2 -7 4365 1 4371 9 7 5519 7 5520 0z m-4710 -3085 c0 -5 2
-343 2 -750 2 -715 3 -741 22 -772 20 -35 69 -63 113 -66 22 -2 27 -8 30 -32
6 -73 33 -115 86 -135 20 -7 169 -11 459 -10 376 0 433 2 463 16 40 19 67 62
74 119 4 31 10 40 25 42 66 6 108 31 126 76 11 26 14 178 14 777 l0 744 38 1
c34 1 37 -1 37 -27 1 -36 1 -1420 0 -1671 l0 -192 -772 1 c-425 1 -777 2 -783
3 -7 1 -9 314 -8 924 1 507 2 932 3 943 0 18 6 21 35 20 19 0 35 -5 36 -11z
m1209 -691 l0 -702 -22 -6 c-39 -9 -100 -67 -122 -115 l-21 -46 -336 0 -337 0
-12 34 c-15 42 -90 118 -124 127 l-26 6 -2 677 c-2 372 -2 687 0 701 l3 25
499 0 500 0 0 -701z"/>
<path d="M551 4090 c0 -741 3 -960 12 -961 15 -1 2282 -1 2318 0 l27 1 0 960
-1 960 -1177 0 -1178 0 -1 -960z m2145 748 c5 -6 10 -1418 5 -1495 -1 -8 -243
-11 -970 -11 -893 0 -969 1 -973 16 -3 14 -2 1427 1 1483 1 14 98 15 965 15
530 -1 968 -4 972 -8z"/>
<path d="M974 4495 c-2 -5 -3 -50 -1 -100 l2 -90 298 -3 297 -2 0 100 c0 55
-3 101 -7 101 -5 1 -138 2 -297 3 -186 1 -290 -2 -292 -9z"/>
<path d="M976 4191 c-2 -3 -3 -49 -3 -102 l-1 -96 449 0 449 0 0 102 0 102
-445 0 c-245 1 -447 -2 -449 -6z"/>
<path d="M2190 4095 l0 -102 160 0 160 1 0 101 0 102 -160 0 -160 1 0 -103z"/>
<path d="M976 3878 c-3 -7 -4 -53 -3 -103 l2 -90 445 0 445 1 3 102 3 102
-446 0 c-348 0 -446 -3 -449 -12z"/>
<path d="M2192 3788 l3 -102 155 0 155 0 3 102 3 102 -161 0 -161 0 3 -102z"/>
<path d="M3368 4912 c-13 -2 -15 -46 -15 -337 0 -235 3 -335 11 -336 68 -4
2058 0 2062 4 11 11 10 667 -1 668 -24 3 -2043 4 -2057 1z m1860 -335 l1 -134
-835 0 c-608 0 -834 3 -835 11 -1 15 -1 228 0 244 1 9 175 12 835 12 l833 0 1
-133z"/>
<path d="M3358 3808 c-1 -2 -2 -150 -3 -330 l-2 -328 26 -1 c30 0 586 0 616 1
20 0 20 7 20 328 l0 327 -327 3 c-181 1 -329 1 -330 0z m452 -328 l0 -127
-125 0 c-106 1 -125 3 -126 16 -1 21 -1 190 0 216 1 20 8 21 126 21 l125 1 0
-127z"/>
<path d="M4077 3803 c-3 -5 -5 -153 -5 -330 0 -238 3 -323 11 -323 7 -1 155
-2 330 -3 275 -2 318 0 321 13 2 8 3 157 2 330 l-1 315 -327 3 c-180 1 -329
-1 -331 -5z m453 -324 l0 -127 -127 2 -128 1 0 110 c0 61 1 117 3 126 3 13 23
15 128 15 l124 0 0 -127z"/>
<path d="M4770 3698 c-1 -419 0 -541 4 -545 6 -6 647 -6 653 1 4 4 7 533 4
634 l-1 22 -330 0 -330 0 0 -112z m455 -218 l0 -125 -125 0 -125 0 -1 120 c0
66 1 123 2 126 2 3 58 5 126 5 l123 -1 0 -125z"/>
<path d="M3361 2930 c-4 -3 -8 -152 -8 -332 l0 -328 331 0 332 0 0 330 c-1
287 -3 330 -16 331 -55 4 -633 3 -639 -1z m449 -324 c0 -90 -3 -125 -12 -128
-20 -7 -227 -3 -234 4 -5 5 -9 169 -5 231 1 15 14 17 126 17 l125 0 0 -124z"/>
<path d="M4079 2930 c-4 -3 -8 -153 -7 -333 l0 -327 332 2 331 3 0 328 c0 320
0 327 -20 328 -71 4 -629 3 -636 -1z m449 -327 l-3 -128 -123 0 c-67 0 -122 2
-123 5 -1 3 -2 60 -2 128 l-2 122 128 0 128 0 -3 -127z"/>
<path d="M4774 2928 c-4 -5 -7 -484 -4 -640 0 -17 22 -18 330 -18 l330 0 1 23
c1 27 1 571 0 612 l-1 30 -326 0 c-179 0 -328 -3 -330 -7z m453 -323 c1 -121
0 -125 -21 -126 -78 -4 -219 -3 -225 1 -4 3 -7 60 -7 128 l0 122 126 0 126 0
1 -125z"/>
<path d="M3356 2051 c-2 -3 -3 -152 -2 -331 l1 -325 330 0 330 0 0 330 0 330
-328 1 c-180 0 -329 -2 -331 -5z m432 -200 c22 -1 22 -3 22 -126 l0 -125 -125
0 c-123 0 -125 0 -126 23 -1 31 -1 177 0 207 l1 25 103 -1 c56 -1 112 -2 125
-3z"/>
<path d="M4076 2051 c-7 -11 -5 -651 2 -652 4 -1 152 -2 329 -3 212 -1 324 2
326 9 2 5 3 154 3 330 l-1 320 -328 1 c-180 0 -329 -2 -331 -5z m442 -200 c9
-1 12 -33 12 -126 l0 -126 -127 3 -127 3 -1 120 c0 66 0 122 1 125 2 4 190 5
242 1z"/>
<path d="M4770 1984 c-1 -41 -1 -130 -1 -199 0 -69 0 -185 1 -258 l0 -132 330
0 330 0 1 25 c1 31 1 611 0 626 -1 8 -100 11 -331 11 l-330 0 0 -73z m431
-133 l26 -1 0 -125 0 -125 -127 0 -126 0 0 125 c0 103 3 125 15 127 13 3 138
2 212 -1z"/>
<path d="M1629 2293 c-29 -8 -64 -20 -76 -29 -13 -8 -23 -12 -23 -9 0 3 -12
-6 -27 -20 -15 -14 -31 -25 -35 -25 -15 0 -90 -110 -110 -162 -33 -83 -32
-197 1 -283 47 -119 154 -210 286 -244 44 -11 153 -8 200 7 161 50 273 196
280 365 12 266 -236 466 -496 400z m194 -215 c61 -32 93 -86 101 -173 5 -54
-39 -125 -99 -160 -79 -46 -164 -34 -230 31 -98 98 -71 243 58 310 15 8 31 13
35 11 4 -3 16 -1 27 3 20 7 74 -4 108 -22z"/>
<path d="M1653 1403 c-4 -2 -8 -90 -7 -195 l1 -193 64 -3 65 -3 -2 193 c-1
106 -2 195 -3 198 -1 6 -103 8 -118 3z"/>
</g>
</svg>
